<svg version="1" xmlns="http://www.w3.org/2000/svg" width="533.333" height="533.333" viewBox="0 0 400.000000 400.000000"><path d="M55.3 1.4c-.3.4.1 1.2.8 1.7 1.2.8 1.2 1 0 1.8-.9.6-1 1-.2 1.6.9.5.9 1 0 2.1s-.8 1.4.2 1.4 1 .3.3.8c-.6.4-1 1.9-.8 3.5.1 1.5 0 2.5-.4 2.3-.4-.2-.7 1.7-.7 4.2v4.7l-5 .2c-7.1.4-8.4.6-7.9 1.5.6 1-3.2 2.9-4.1 2-.5-.4-.6 0-.2.9.4 1.1-1.3 3.5-5.3 7.4-7.7 7.4-11 14.4-11.6 24.5-.8 12.7-.3 20.7 1.3 25 .3.8.7 2.2.9 3 .2.8.7 2.3 1.2 3.5 1.7 3.8 3 8.5 2.3 8.1-.4-.3-.8.1-.8.9s.4 1.2.9.9c.4-.3.8.2.8 1 0 1-.6 1.3-1.7.9-1.6-.6-1.6-.5-.4 1 .9 1.2 1 1.7.2 1.7-.7 0-.9.4-.6 1 .3.5.2 1-.4 1-.6 0-.8.6-.5 1.4.3.8 0 1.7-.7 2.2-.8.5-1 .3-.4-.6.5-.8.4-1.1-.3-.6-.6.4-.8 1.4-.5 2.3.4 1 .2 1.4-.4 1-.5-.3-1 0-1 .8s.4 1.2.9.9c.4-.3.8 0 .8.5 0 .6-.5 1.1-1.1 1.1-.5 0-.8.4-.4.9.3.5.1 1.2-.4 1.5-.5.4-.8 1.7-.6 3.1.1 1.8-.1 2.2-.9 1.6-.8-.7-1.1-.1-1.1 1.9-.1 1.6.2 2.7.6 2.4 1-.6.5 2.4-.6 3.3-.4.4-.5.2 0-.6.6-1 .4-1.2-.5-.6-1.1.7-1 1 .1 1.9.8.6 1.5 2.4 1.6 4.1.2 1.6.7 3.1 1.3 3.3.7.3.6.9-.2 2-1 1.2-1 1.4-.1.8 1.7-.9 1.7.6 0 2.3-.9 1.1-.9 1.3 0 .7 1.6-.9 1.7.6.1 2.2-.7.7-.9 1.2-.5 1.2s.1 1.3-.7 2.9c-.9 1.6-1.3 3.1-1 3.3.2.3.5 2.9.6 5.9.1 5.2.3 5.6 5.8 10.9 6.3 6 8.8 9.4 9.3 12.8.2 1.2.6 2.4.9 2.8.4.3.4 1.2.1 2-.3.8-.1 1.4.5 1.4s.8 1 .4 2.2c-.4 1.6-.2 1.9.9 1.3 1.1-.7 1.1-.5-.1 1-1 1.3-1.1 1.6-.2 1.1 1-.6 1.3-.3 1.1 1-.1 1.1.3 3.2 1 4.9 1.7 4.2 4.1 13.7 4.4 17.4.1 1.7.5 3.1.8 3.1.6 0 1.1 2 2.5 8.8.1.8.5 1.6.8 1.9.3.3.1 1.5-.5 2.6-.7 1.2-.7 1.7-.1 1.3.5-.3 1.3.1 1.6 1 .3.8.2 1.2-.4.9-.6-.3-.7.1-.4.9.3.9.9 1.6 1.3 1.6.9 0 3.5 5.1 3.3 6.3-.1.4.1.6.5.5.9-.3 9.6 5.5 12.7 8.4 1.1 1 2.4 1.8 2.8 1.8 1.1 0 7.2 4.2 7.6 5.2.2.5.9.8 1.7.8.7 0 1.9.7 2.6 1.6 1.1 1.3 5 3.5 6.9 3.8.3.1 2.1 1.1 4 2.3 1.9 1.1 5.6 3.1 8.1 4.3 4 1.8 8.5 6.1 11.4 10.9.6 1 .4 1.2-.6.6-1.1-.7-1.2-.6-.3.6 1.4 1.9 2.6 5.1 1.6 4.5-.4-.2-.8 1.8-.8 4.5s.4 4.9.9 4.9.4.6-.2 1.3c-.6.8-.8 1.6-.6 1.9.5.5 1 2.3 1.9 6.5.1.7.5 1.6.9 1.9.4.4.7 1.8.7 3.1s.4 2.3 1 2.3c.5 0 .7.6.4 1.3-.3.8.2 2 1.1 2.7.8.7 1.5 1.8 1.5 2.4 0 .6-.5.4-1-.4s-1-1-1-.4.7 1.7 1.5 2.4 1.3 1.6 1 2c-.3.5-.1 1 .4 1.2.5.1 3 4.4 5.4 9.3 2.5 5 6.8 12.4 9.6 16.5 2.8 4 5.1 7.8 5.1 8.4 0 1.1 3.5 5.4 9.1 11.3 1.7 1.8 5 3.8 7.2 4.6 9.2 3.1 10.7 3.5 10.7 2.6 0-1.1 3.2.1 4.2 1.5.5.8.8.7.8-.1 0-.7 1.1-1 2.8-.7 1.5.2 6.8.6 11.7.8 5 .3 9.2.5 9.5.6 1.8.7 8.6.3 9.2-.5.5-.6.8-.5.8.2s.7 1 1.7.6c.9-.4 1.4-.2 1 .3-.3.5.3 1 1.3 1s1.6-.5 1.3-1c-.4-.5.1-.7 1-.3 1 .4 1.7.1 1.7-.6 0-.8.3-.8.8-.2.8 1.2 13.1 1.3 15 .1.7-.4 1.2-.3 1.2.3 0 1.1 6.1-.9 7.2-2.3.9-1.3 8.9 2.4 8.1 3.7-.3.6-.1.7.5.3.6-.4 5.3 1.3 10.4 3.7 5.1 2.5 10.2 4.8 11.2 5.1 3.7 1.3 25.5.6 33.6-.9 1.4-.3 4.1-.8 6-1.1 4.7-.8 11-3.7 13.7-6.3 1.2-1.1 2.6-2.1 3-2.2 2.3-.1 15.1-19.8 15.7-24.3.4-2.1.8-4.2 1.1-4.6.2-.3.6-2 .9-3.6.2-1.6.7-4.8 1.1-7.2.5-2.8 1.4-4.8 2.9-5.7 5.3-3.5 12.4-17.2 21.2-41 .4-1.1.8-2.9.9-4.1.1-1.1.6-2.7 1.1-3.5.4-.8.9-2.5 1-3.9.1-1.4.2-2.5.3-2.5.2 0 .4-.7.6-1.5.2-.8 1-4.6 1.9-8.3 1.5-6.5 2-10 3.1-21.2.3-2.8.9-6.4 1.3-8 .5-1.7.8-3.8.6-4.8-.1-.9.2-1.7.7-1.7.6 0 .6-.7.1-1.8-.4-.9-.8-4.1-.7-6.9 0-2.9-.4-5.3-.9-5.3s-.3-.7.4-1.5c1-1.2 1-1.5 0-1.5-.9 0-.9-.4.1-1.7 1-1.1 1-1.4.2-.9-1.4.8-1.5-.3-1.4-14.4 0-7.1.6-11.5 2.1-15.4.5-1.5.7-2.6.4-2.6-.4 0-.2-.6.4-1.3 2-2.4 4.9-16.4 4.6-21.8-.3-3-.6-10.4-.9-16.4-.2-6.1-.7-14.7-1-19.2-.4-7.3-.2-8.7 1.8-12.6 2.2-4.1 2.4-5.3 2.2-20.8-.2-15-.8-20.9-2.1-23.1-.3-.4-.1-.8.4-.8 1.3 0-.3-8.2-2.4-12.1-.9-1.8-1.7-5.1-1.7-7.5-.1-2.4-.4-4.4-.7-4.4-.3 0-.7-.9-.8-2-.1-1.1-.2-2.8-.3-3.8-.1-.9-1.1-3.3-2.2-5.2-1.3-2.3-2.1-5.9-2.3-10.2-.2-3.8-1-8.3-1.9-10.1-1.9-4.1-8-10.9-8.9-10-.3.3-.6.1-.6-.5 0-.7-1.4-2.7-3.1-4.4l-3-3.2-124-.1C149 .5 107 .8 107 1.5s-.3.7-.8 0c-.9-1.3-10.5-1.3-11.4 0-.5.7-.8.7-.8 0 0-.6-3.5-1-8.5-1s-8.5.4-8.5 1c0 .7-.3.7-.8 0C75.3.3 56 .2 55.3 1.4z"/><path d="M52.2 22.2c-1.5 1.5-1.5 2.8-.1 2.8.5 0 .8-.4.5-.9-.4-.5 0-1.1.6-1.4.7-.2 1-.7.7-1-.3-.4-1.1-.1-1.7.5zM32.8 34.1c-1.5 1.6-2.4 2.9-1.9 2.9 1 0 5.6-4.9 5-5.4-.2-.1-1.6 1-3.1 2.5z"/></svg>